<?xml version="1.0" standalone="no"?>
<!DOCTYPE svg PUBLIC "-//W3C//DTD SVG 20010904//EN"
 "http://www.w3.org/TR/2001/REC-SVG-20010904/DTD/svg10.dtd">
<svg version="1.0" xmlns="http://www.w3.org/2000/svg"
 width="1298.000000pt" height="544.000000pt" viewBox="0 0 1298.000000 544.000000"
 preserveAspectRatio="xMidYMid meet">

<g transform="translate(0.000000,544.000000) scale(0.100000,-0.100000)"
fill="#000000" stroke="none">
<path d="M304 4933 c-11 -2 -62 -46 -113 -97 l-92 -93 80 -134 c45 -74 82
-137 83 -141 2 -3 322 -93 712 -198 390 -106 717 -195 727 -198 15 -6 -275
-99 -979 -315 -61 -19 -65 -22 -109 -90 -25 -38 -47 -76 -50 -84 -3 -7 20 -42
51 -77 66 -75 97 -85 186 -61 30 8 59 15 63 15 5 0 -27 -29 -72 -65 -45 -36
-81 -67 -81 -69 0 -2 50 -66 111 -142 77 -97 119 -141 137 -146 15 -3 267 -48
560 -100 293 -51 528 -94 523 -96 -5 -2 -281 -58 -614 -125 l-606 -122 -65
-83 -65 -83 57 -78 c47 -66 63 -80 92 -86 27 -5 31 -9 18 -16 -32 -18 -150
-168 -142 -181 5 -7 35 -51 68 -98 32 -47 60 -86 61 -88 2 -2 1335 -62 1393
-62 l32 0 0 -830 0 -830 255 0 255 0 0 774 0 775 43 5 c23 3 276 29 562 56
286 28 529 53 540 55 17 4 155 182 155 201 0 16 -144 174 -159 174 -16 0
-1022 -115 -1098 -125 l-43 -6 0 220 c0 159 3 221 11 221 7 0 321 -79 698
-176 527 -135 695 -174 726 -170 34 4 49 15 97 68 32 35 57 65 58 68 0 3 -24
41 -53 85 l-52 79 -698 217 c-385 120 -701 219 -702 221 -2 2 260 53 583 114
446 85 581 114 564 121 -23 9 -21 12 63 120 84 107 89 111 133 118 38 6 53 15
91 57 79 88 78 77 21 166 l-50 79 -540 168 c-297 93 -538 170 -537 172 2 1
320 77 707 168 388 91 706 168 709 171 2 2 -2 4 -10 4 -9 0 -23 6 -33 13 -16
12 -11 23 64 149 66 110 80 140 72 155 -22 39 -168 171 -197 178 -29 6 -29 6
-12 -13 17 -19 16 -20 -40 -35 -192 -53 -1653 -437 -1662 -437 -7 0 -11 60
-13 176 l-3 177 -126 40 -126 39 -124 -39 -124 -39 -3 -178 -2 -178 -23 6
c-12 3 -446 131 -964 286 -518 154 -945 279 -950 279 -4 -1 -17 -4 -29 -6z
m1966 -1393 c0 -154 -3 -280 -7 -280 -24 -1 -1202 245 -1197 249 7 7 1161 308
1187 310 16 1 17 -19 17 -279z m928 84 c210 -54 381 -99 379 -101 -2 -1 -172
-41 -378 -88 -206 -46 -384 -87 -396 -90 l-23 -5 0 195 c0 182 1 196 18 191 9
-3 189 -49 400 -102z m-928 -1309 l0 -135 -32 0 c-18 0 -314 16 -658 35 -344
19 -641 35 -660 36 -28 1 1271 194 1333 198 15 1 17 -12 17 -134z"/>
<path d="M5865 4126 c-56 -25 -79 -60 -83 -129 -2 -49 1 -69 17 -94 27 -43 73
-65 133 -65 93 1 149 58 150 153 0 110 -113 181 -217 135z"/>
<path d="M4170 4123 c0 -5 137 -339 304 -743 l304 -735 149 -3 150 -3 31 78
c17 43 91 224 165 403 280 675 409 985 414 998 4 9 -31 12 -154 12 l-160 0
-218 -562 c-120 -310 -221 -567 -225 -571 -4 -5 -22 29 -39 75 -18 45 -116
301 -220 568 l-188 485 -156 3 c-86 1 -157 -1 -157 -5z"/>
<path d="M10696 4115 c-3 -9 -5 -343 -3 -743 l2 -727 125 0 125 0 3 743 2 742
-124 0 c-102 0 -125 -3 -130 -15z"/>
<path d="M7495 3974 c-60 -7 -111 -13 -113 -13 -2 -1 -3 -52 -2 -113 1 -62 1
-123 1 -135 -1 -22 -4 -23 -96 -23 l-95 0 0 -110 0 -110 95 0 95 0 1 -217 c1
-120 1 -222 0 -227 -5 -26 24 -167 43 -211 29 -65 109 -138 179 -162 89 -31
280 -21 359 19 15 7 13 18 -19 115 -20 60 -36 109 -37 110 -1 1 -20 -4 -41
-12 -86 -31 -171 -12 -200 44 -18 36 -18 34 -16 314 l1 227 143 0 142 0 3 110
4 110 -146 0 -146 0 0 150 c0 149 0 150 -22 149 -13 -1 -72 -7 -133 -15z"/>
<path d="M6735 3711 c-57 -14 -106 -44 -144 -87 l-39 -44 -6 31 c-3 17 -6 42
-6 54 0 13 -6 25 -12 28 -7 2 -62 4 -123 3 l-110 -1 0 -525 0 -525 125 0 125
0 6 315 c6 358 9 371 85 439 55 48 114 65 203 59 51 -4 82 -12 116 -32 26 -15
48 -26 49 -24 2 1 28 52 60 111 l57 108 -23 19 c-32 27 -99 58 -150 70 -49 11
-168 11 -213 1z"/>
<path d="M9720 3699 c-96 -25 -164 -63 -230 -129 -67 -67 -104 -134 -130 -236
-48 -187 -10 -403 96 -537 78 -100 181 -154 341 -179 134 -21 290 27 377 116
l44 45 8 -67 9 -67 120 0 120 0 0 525 0 525 -115 3 c-134 4 -140 0 -140 -85
l0 -53 -35 38 c-97 108 -280 148 -465 101z m344 -253 c168 -98 200 -347 65
-500 -50 -58 -125 -88 -217 -89 -130 -1 -232 63 -284 178 -33 75 -32 200 3
275 60 129 174 187 331 169 34 -4 76 -18 102 -33z"/>
<path d="M5800 3169 l0 -530 128 3 127 3 3 528 2 527 -130 0 -130 0 0 -531z"/>
<path d="M8134 3685 c-3 -7 -4 -161 -1 -342 3 -261 7 -339 20 -382 43 -143
119 -239 235 -294 63 -30 73 -32 182 -32 138 0 193 18 287 94 l62 50 6 -47 c4
-26 8 -56 9 -67 3 -19 12 -20 119 -23 l117 -3 0 530 0 529 -127 -2 -128 -1 -5
-310 c-5 -288 -7 -313 -26 -355 -60 -129 -187 -188 -324 -150 -47 13 -106 63
-133 113 -21 40 -22 55 -27 372 l-5 330 -128 2 c-102 2 -129 0 -133 -12z"/>
<path d="M4770 1710 l0 -740 135 0 135 0 2 497 3 497 385 -494 385 -495 93 -3
92 -3 0 741 0 740 -140 0 -140 0 -2 -461 -3 -461 -364 461 -364 461 -108 0
-109 0 0 -740z"/>
<path d="M11480 2155 l0 -285 -34 38 c-69 76 -192 122 -326 122 -251 -1 -433
-138 -495 -375 -20 -77 -20 -252 0 -329 58 -222 227 -360 467 -382 139 -12
282 36 352 118 35 41 46 40 46 -2 0 -15 3 -42 6 -59 l7 -31 118 0 119 0 0 735
0 735 -130 0 -130 0 0 -285z m-183 -396 c107 -51 166 -149 166 -275 0 -132
-72 -240 -191 -284 -109 -41 -227 -20 -311 56 -70 63 -96 126 -95 234 0 129
50 219 148 268 96 48 183 49 283 1z"/>
<path d="M12261 2025 c-144 -27 -270 -117 -299 -213 -18 -60 -15 -170 7 -218
53 -117 178 -179 411 -204 133 -14 184 -35 199 -82 27 -83 -61 -158 -184 -158
-97 0 -282 69 -334 124 l-24 26 -64 -93 -64 -92 47 -43 c95 -87 214 -130 381
-139 181 -10 306 24 397 108 75 69 101 129 100 239 0 131 -47 208 -159 263
-65 32 -121 45 -247 58 -175 17 -228 45 -228 119 0 120 254 147 409 44 23 -15
43 -25 45 -23 2 2 33 39 70 83 l67 78 -33 25 c-47 35 -115 68 -176 86 -77 23
-232 29 -321 12z"/>
<path d="M6601 2015 c-235 -51 -392 -238 -408 -485 -18 -276 124 -492 372
-566 82 -25 248 -25 330 0 96 28 171 74 234 142 98 104 141 220 141 379 0 161
-49 284 -155 391 -126 127 -322 180 -514 139z m203 -229 c103 -31 171 -108
201 -225 20 -77 13 -143 -22 -224 -47 -105 -130 -157 -253 -157 -124 0 -206
52 -255 162 -67 147 -19 335 106 414 68 43 145 53 223 30z"/>
<path d="M7917 2020 c-69 -12 -132 -46 -171 -92 l-35 -40 -6 38 c-15 92 -2 84
-130 84 l-115 0 0 -520 0 -520 125 0 125 0 0 298 c0 339 5 375 68 444 114 126
292 91 352 -69 18 -50 20 -78 20 -363 l0 -310 130 0 130 0 0 313 c0 292 2 315
21 357 41 92 112 140 205 140 83 0 134 -32 171 -107 l28 -58 3 -322 4 -323
124 0 124 0 0 323 c0 357 -7 416 -60 523 -37 75 -91 126 -179 168 -63 30 -71
31 -196 31 -122 0 -134 -2 -186 -27 -33 -17 -80 -53 -114 -89 -33 -34 -61 -56
-63 -50 -9 28 -70 97 -107 122 -67 46 -175 65 -268 49z"/>
<path d="M9659 2007 c-100 -30 -154 -64 -222 -136 -66 -72 -100 -139 -121
-243 -40 -195 5 -407 114 -530 176 -201 540 -220 704 -38 l45 51 7 -71 7 -70
118 0 119 0 0 520 0 520 -119 0 -120 0 -7 -71 -7 -70 -28 34 c-38 46 -111 91
-178 111 -80 24 -218 20 -312 -7z m325 -224 c69 -22 137 -92 165 -169 60 -157
3 -337 -130 -408 -75 -41 -188 -48 -271 -16 -122 45 -189 154 -189 303 0 125
55 224 153 273 91 46 170 51 272 17z"/>
<path d="M4620 670 l0 -110 86 0 c83 0 85 1 82 23 -3 19 -10 22 -60 25 -50 3
-58 6 -58 22 0 17 7 20 55 20 48 0 55 2 55 20 0 18 -7 20 -53 20 -61 0 -67 3
-60 31 5 16 14 19 64 19 52 0 59 2 59 20 0 18 -7 20 -85 20 l-85 0 0 -110z"/>
<path d="M5000 670 c0 -103 1 -110 20 -110 19 0 20 7 20 110 0 103 -1 110 -20
110 -19 0 -20 -7 -20 -110z"/>
<path d="M5065 770 c-9 -15 14 -40 31 -33 22 8 18 43 -5 43 -11 0 -23 -5 -26
-10z"/>
<path d="M5319 778 c-1 -2 -3 -51 -4 -110 l-3 -108 25 0 c24 0 25 2 21 45 -6
51 8 79 38 73 16 -3 20 -13 22 -61 3 -52 5 -57 26 -57 23 0 24 3 21 61 -4 76
-25 103 -72 96 -22 -4 -33 -2 -34 6 -1 7 -2 21 -3 32 -1 16 -32 35 -37 23z"/>
<path d="M5983 764 c-8 -22 18 -37 36 -20 7 8 10 19 7 25 -10 16 -36 13 -43
-5z"/>
<path d="M7675 770 c-9 -15 14 -40 31 -33 22 8 18 43 -5 43 -11 0 -23 -5 -26
-10z"/>
<path d="M8610 760 c0 -13 7 -20 20 -20 13 0 20 7 20 20 0 13 -7 20 -20 20
-13 0 -20 -7 -20 -20z"/>
<path d="M8990 738 c0 -33 -3 -39 -12 -30 -38 38 -118 -10 -118 -71 0 -54 32
-76 108 -75 l62 1 0 108 c0 102 -1 109 -20 109 -17 0 -20 -7 -20 -42z m-26
-64 c23 -9 21 -61 -2 -73 -14 -7 -25 -6 -40 5 -47 33 -12 89 42 68z"/>
<path d="M9926 771 c-4 -5 -5 -21 -2 -35 4 -25 3 -25 -39 -20 -56 8 -85 -18
-85 -76 0 -61 24 -80 103 -78 l63 1 0 106 c-1 90 -3 106 -18 109 -9 2 -19 -1
-22 -7z m-18 -103 c7 -7 12 -22 12 -35 0 -28 -36 -46 -62 -31 -34 17 -16 78
22 78 9 0 21 -5 28 -12z"/>
<path d="M10454 769 c-3 -6 0 -17 7 -25 18 -17 44 -2 36 20 -7 18 -33 21 -43
5z"/>
<path d="M11020 762 c0 -24 8 -32 26 -25 22 8 17 43 -6 43 -13 0 -20 -7 -20
-18z"/>
<path d="M12267 774 c-16 -16 -6 -34 19 -34 19 0 25 5 22 17 -3 19 -29 29 -41
17z"/>
<path d="M5510 741 c0 -10 -7 -21 -15 -25 -8 -3 -15 -12 -15 -21 0 -8 7 -15
15 -15 11 0 15 -11 15 -41 0 -59 14 -79 56 -79 29 0 35 3 30 16 -3 9 -6 18 -6
20 0 2 -9 4 -20 4 -17 0 -20 7 -20 40 0 34 3 40 21 40 14 0 19 5 17 18 -2 9
-11 16 -21 16 -12 -1 -17 6 -17 22 0 17 -6 24 -20 24 -13 0 -20 -7 -20 -19z"/>
<path d="M10350 740 c0 -11 -7 -20 -15 -20 -8 0 -15 -9 -15 -20 0 -11 7 -20
15 -20 11 0 15 -12 15 -48 0 -55 12 -72 52 -72 21 0 28 5 28 20 0 13 -7 20
-20 20 -17 0 -20 7 -20 40 0 33 3 40 20 40 12 0 20 7 20 16 0 9 -9 18 -20 21
-11 3 -20 14 -20 24 0 12 -7 19 -20 19 -13 0 -20 -7 -20 -20z"/>
<path d="M10910 735 c0 -14 -5 -24 -12 -22 -6 1 -14 -6 -16 -15 -2 -11 2 -18
12 -18 12 0 16 -11 16 -44 0 -53 19 -76 62 -76 23 0 29 4 24 16 -3 9 -6 18 -6
20 0 2 -9 4 -20 4 -17 0 -20 7 -20 40 0 33 3 40 20 40 13 0 20 7 20 20 0 13
-7 20 -20 20 -13 0 -20 7 -20 20 0 13 -7 20 -20 20 -15 0 -20 -7 -20 -25z"/>
<path d="M11720 740 c0 -11 -7 -20 -15 -20 -8 0 -15 -9 -15 -20 0 -11 7 -20
15 -20 11 0 15 -12 15 -48 0 -55 12 -72 52 -72 21 0 28 5 28 20 0 13 -7 20
-20 20 -17 0 -20 7 -20 40 0 33 3 40 20 40 13 0 20 7 20 20 0 13 -7 20 -20 20
-13 0 -20 7 -20 20 0 13 -7 20 -20 20 -13 0 -20 -7 -20 -20z"/>
<path d="M12160 740 c0 -11 -7 -20 -15 -20 -8 0 -15 -9 -15 -20 0 -11 7 -20
15 -20 11 0 15 -12 15 -48 0 -55 12 -72 52 -72 21 0 28 5 28 20 0 13 -7 20
-20 20 -17 0 -20 7 -20 40 0 33 3 40 20 40 13 0 20 7 20 20 0 14 -6 20 -17 18
-12 -2 -19 4 -21 20 -4 29 -42 31 -42 2z"/>
<path d="M5211 720 c-47 -7 -81 -37 -81 -71 0 -48 41 -89 91 -89 28 0 37 -30
14 -46 -25 -18 -31 -18 -55 6 -16 16 -50 19 -50 3 0 -33 58 -64 104 -56 48 10
74 75 41 103 -14 12 -14 15 0 30 25 28 13 135 -15 129 -3 -1 -25 -5 -49 -9z
m35 -66 c8 -33 -15 -59 -44 -50 -46 15 -34 76 14 76 17 0 25 -7 30 -26z"/>
<path d="M6313 723 c-63 -6 -99 -60 -77 -118 8 -19 55 -45 82 -45 27 0 38 -31
16 -47 -24 -17 -31 -16 -54 7 -21 21 -50 27 -50 11 0 -62 109 -87 148 -34 16
23 15 58 -3 73 -12 10 -12 15 0 34 21 32 11 130 -13 124 -4 -1 -26 -3 -49 -5z
m27 -58 c15 -19 4 -52 -21 -60 -38 -12 -65 35 -37 63 16 16 43 15 58 -3z"/>
<path d="M4810 640 c0 -73 2 -80 20 -80 17 0 20 7 20 41 0 50 15 79 40 79 25
0 40 -29 40 -79 0 -34 3 -41 20 -41 18 0 20 7 20 54 0 84 -44 126 -101 96 -13
-7 -19 -7 -19 0 0 5 -9 10 -20 10 -18 0 -20 -7 -20 -80z"/>
<path d="M5070 640 c0 -73 2 -80 20 -80 18 0 20 7 20 80 0 73 -2 80 -20 80
-18 0 -20 -7 -20 -80z"/>
<path d="M5635 695 c-53 -52 -15 -135 62 -135 74 0 85 43 11 44 -54 1 -37 21
17 21 50 0 50 0 47 30 -7 64 -90 88 -137 40z m95 -30 c0 -3 -17 -5 -37 -5 -35
1 -37 2 -19 15 13 10 24 11 37 4 11 -5 19 -12 19 -14z"/>
<path d="M5800 640 c0 -73 2 -80 19 -80 17 0 20 8 23 51 3 55 21 78 52 66 12
-5 16 -20 16 -62 0 -48 2 -55 20 -55 18 0 20 7 20 60 0 47 -4 64 -20 80 -22
22 -65 27 -76 9 -4 -8 -9 -8 -17 0 -28 28 -37 11 -37 -69z"/>
<path d="M5980 640 c0 -73 2 -80 20 -80 18 0 20 7 20 80 0 73 -2 80 -20 80
-18 0 -20 -7 -20 -80z"/>
<path d="M6058 708 c-3 -7 -6 -43 -7 -80 -2 -67 -2 -68 23 -68 25 0 26 3 26
55 0 42 4 57 16 62 31 12 49 -11 52 -66 3 -43 6 -51 23 -51 16 0 19 7 19 54 0
84 -44 126 -101 96 -13 -7 -19 -7 -19 0 0 14 -27 13 -32 -2z"/>
<path d="M6463 708 c3 -7 17 -43 32 -80 25 -63 26 -68 10 -97 -15 -30 -15 -31
9 -31 20 0 29 13 66 98 23 53 44 103 47 110 3 7 -3 12 -16 12 -17 0 -28 -13
-46 -52 l-23 -53 -11 28 c-6 15 -14 39 -17 52 -4 18 -13 25 -31 25 -16 0 -23
-5 -20 -12z"/>
<path d="M6665 695 c-51 -50 -17 -135 54 -135 47 0 81 33 81 79 0 42 -38 81
-80 81 -19 0 -40 -9 -55 -25z m85 -30 c26 -31 -8 -83 -45 -69 -37 15 -25 84
15 84 10 0 23 -7 30 -15z"/>
<path d="M6827 707 c-10 -26 3 -110 19 -128 12 -14 30 -18 75 -17 l59 1 0 78
c0 72 -2 79 -20 79 -17 0 -20 -7 -20 -49 0 -59 -20 -87 -51 -71 -15 9 -19 22
-19 65 0 47 -3 55 -19 55 -10 0 -21 -6 -24 -13z"/>
<path d="M7010 639 c0 -72 2 -79 20 -79 17 0 20 7 20 49 0 53 17 77 49 68 20
-5 36 16 26 33 -3 5 -30 8 -60 8 l-55 -1 0 -78z"/>
<path d="M7225 695 c-51 -50 -17 -135 53 -135 50 0 70 13 53 34 -9 11 -18 13
-31 6 -12 -6 -24 -4 -38 6 -40 28 -19 79 30 73 33 -5 52 9 37 27 -19 23 -77
17 -104 -11z"/>
<path d="M7360 657 c0 -82 13 -96 93 -95 l57 1 0 78 c0 72 -2 79 -20 79 -18 0
-20 -7 -20 -55 0 -42 -4 -56 -18 -64 -34 -18 -52 5 -52 64 0 48 -2 55 -20 55
-18 0 -20 -7 -20 -63z"/>
<path d="M7540 639 c0 -72 2 -79 20 -79 17 0 20 7 20 41 0 57 15 81 48 77 21
-2 27 1 27 17 0 17 -7 20 -57 22 l-58 1 0 -79z"/>
<path d="M7680 640 c0 -73 2 -80 20 -80 18 0 20 7 20 80 0 73 -2 80 -20 80
-18 0 -20 -7 -20 -80z"/>
<path d="M7776 699 c-20 -16 -26 -29 -26 -60 0 -52 27 -79 78 -79 51 0 77 28
77 82 0 70 -72 102 -129 57z m84 -39 c20 -37 -17 -77 -52 -58 -18 9 -25 58
-11 71 14 14 53 6 63 -13z"/>
<path d="M7932 654 c5 -82 17 -93 99 -92 l59 1 0 78 c0 72 -2 79 -20 79 -17 0
-20 -7 -20 -41 0 -52 -15 -79 -44 -79 -28 0 -36 16 -36 76 0 38 -3 44 -21 44
-20 0 -21 -4 -17 -66z"/>
<path d="M8142 713 c-7 -2 -17 -13 -22 -24 -17 -30 4 -58 50 -65 22 -4 40 -11
40 -16 0 -16 -31 -21 -57 -9 -21 10 -28 9 -34 -1 -19 -30 44 -51 99 -34 26 9
39 50 22 71 -7 8 -28 17 -46 21 -43 8 -39 30 4 27 34 -3 53 14 31 28 -15 9
-66 11 -87 2z"/>
<path d="M8330 639 c0 -72 2 -79 20 -79 17 0 20 7 20 43 0 50 19 83 44 74 12
-5 16 -20 16 -62 0 -52 1 -55 25 -55 22 0 24 4 27 58 3 49 6 57 23 57 17 0 20
-8 23 -57 3 -55 4 -58 29 -58 26 0 26 1 20 61 -3 37 -12 68 -23 80 -19 21 -64
25 -82 7 -8 -8 -15 -8 -24 -1 -7 6 -37 11 -65 11 l-53 0 0 -79z"/>
<path d="M8610 640 c0 -73 2 -80 20 -80 18 0 20 7 20 80 0 73 -2 80 -20 80
-18 0 -20 -7 -20 -80z"/>
<path d="M8680 640 c0 -73 2 -80 20 -80 17 0 20 7 20 43 0 50 18 81 46 75 16
-3 20 -13 22 -61 3 -53 5 -57 27 -57 23 0 25 4 25 44 0 87 -40 133 -95 108
-15 -7 -25 -8 -25 -2 0 6 -9 10 -20 10 -18 0 -20 -7 -20 -80z"/>
<path d="M9215 695 c-52 -51 -17 -135 56 -135 52 0 79 27 79 79 0 73 -84 108
-135 56z m85 -29 c6 -8 10 -25 8 -38 -6 -42 -78 -32 -78 11 0 37 46 55 70 27z"/>
<path d="M9377 713 c-2 -5 -4 -41 -6 -80 -2 -71 -1 -73 22 -73 22 0 24 4 24
49 1 60 7 71 38 71 27 0 35 -17 35 -76 0 -37 3 -44 20 -44 18 0 20 7 20 58 0
85 -42 123 -101 92 -13 -7 -19 -7 -19 0 0 11 -27 14 -33 3z"/>
<path d="M9579 701 c-18 -14 -24 -29 -24 -61 0 -32 6 -47 24 -61 25 -20 86
-25 110 -10 22 14 -5 44 -28 32 -18 -9 -51 -1 -54 14 -1 6 23 10 53 10 55 0
55 0 53 30 -4 59 -84 86 -134 46z m91 -32 c0 -5 -17 -9 -37 -9 -34 1 -36 2
-20 14 18 14 57 11 57 -5z"/>
<path d="M10021 703 c-33 -27 -38 -82 -11 -116 17 -22 29 -27 63 -27 23 0 49
5 57 10 24 15 -4 35 -44 32 -19 -2 -37 1 -41 7 -5 10 32 17 59 12 6 -1 20 0
33 4 19 4 22 10 17 33 -8 37 -40 62 -79 62 -18 0 -42 -8 -54 -17z m89 -38 c0
-3 -17 -5 -37 -5 -35 1 -37 2 -19 15 13 10 24 11 37 4 11 -5 19 -12 19 -14z"/>
<path d="M10198 709 c-21 -12 -24 -52 -5 -68 8 -6 28 -14 46 -17 17 -4 30 -12
28 -18 -4 -12 -42 -13 -68 -2 -11 5 -19 1 -23 -9 -4 -12 3 -20 28 -30 52 -22
106 -2 106 40 0 28 -17 43 -59 51 -40 8 -34 30 7 27 34 -3 53 14 31 28 -19 12
-70 11 -91 -2z"/>
<path d="M10460 640 c0 -73 2 -80 20 -80 18 0 20 7 20 80 0 73 -2 80 -20 80
-18 0 -20 -7 -20 -80z"/>
<path d="M10530 638 c0 -71 2 -78 20 -78 17 0 20 7 20 48 0 58 10 75 41 70 22
-3 24 -9 27 -60 3 -50 6 -58 22 -58 18 0 20 7 20 60 0 81 -18 99 -94 97 l-56
-1 0 -78z"/>
<path d="M10742 713 c-22 -8 -44 -63 -37 -92 12 -49 32 -61 101 -60 l64 1 0
78 0 77 -57 0 c-32 1 -64 -1 -71 -4z m76 -45 c34 -34 -6 -90 -48 -68 -20 10
-28 58 -13 73 11 11 48 8 61 -5z"/>
<path d="M11020 640 c0 -73 2 -80 20 -80 18 0 20 7 20 80 0 73 -2 80 -20 80
-18 0 -20 -7 -20 -80z"/>
<path d="M11116 699 c-33 -26 -37 -88 -6 -119 29 -29 84 -27 115 5 73 72 -28
178 -109 114z m82 -31 c30 -30 -5 -83 -45 -67 -39 14 -25 79 17 79 9 0 21 -5
28 -12z"/>
<path d="M11270 640 c0 -73 2 -80 19 -80 17 0 20 8 23 51 3 55 21 78 52 66 12
-5 16 -20 16 -62 0 -53 1 -55 26 -55 26 0 26 0 21 62 -7 83 -44 116 -98 88
-13 -7 -19 -7 -19 0 0 5 -9 10 -20 10 -18 0 -20 -7 -20 -80z"/>
<path d="M11535 695 c-27 -26 -32 -63 -14 -98 18 -33 28 -36 96 -35 l63 1 0
78 c0 72 -2 79 -20 79 -11 0 -20 -5 -20 -12 0 -9 -3 -9 -12 0 -20 20 -67 14
-93 -13z m99 -37 c12 -20 2 -44 -27 -62 -19 -12 -57 17 -57 44 0 40 62 53 84
18z"/>
<path d="M11905 695 c-27 -26 -32 -63 -14 -98 18 -33 28 -36 96 -35 l63 1 0
78 c0 72 -2 79 -20 79 -11 0 -20 -5 -20 -12 0 -9 -3 -9 -12 0 -20 20 -67 14
-93 -13z m95 -30 c16 -19 10 -45 -15 -61 -39 -26 -86 31 -53 64 16 16 53 15
68 -3z"/>
<path d="M12268 708 c0 -7 -2 -44 -2 -81 -1 -63 0 -68 19 -65 18 3 20 10 20
78 0 63 -3 75 -17 78 -10 2 -19 -2 -20 -10z"/>
<path d="M12340 638 c0 -71 2 -78 20 -78 16 0 19 8 22 57 2 47 6 58 22 61 26
5 36 -15 36 -70 0 -41 3 -48 19 -48 17 0 20 8 23 51 2 37 8 55 21 63 24 15 37
-7 37 -66 0 -41 3 -48 20 -48 18 0 20 7 20 60 0 47 -4 64 -20 80 -22 22 -51
26 -81 9 -13 -7 -24 -7 -32 -1 -7 6 -33 10 -59 10 l-48 -1 0 -79z"/>
<path d="M12635 695 c-55 -54 -18 -135 62 -135 45 0 72 20 50 38 -7 6 -18 7
-25 3 -15 -9 -60 -3 -68 10 -6 10 6 11 74 11 40 0 42 2 42 29 0 66 -86 94
-135 44z m90 -25 c4 -6 -10 -10 -35 -10 -25 0 -39 4 -35 10 3 6 19 10 35 10
16 0 32 -4 35 -10z"/>
<path d="M9065 568 c4 -18 9 -35 11 -37 8 -8 22 14 26 39 2 20 -2 26 -20 28
-22 3 -23 1 -17 -30z"/>
</g>
</svg>
